<svg width="128" height="130" viewBox="0 0 128 130" fill="none" xmlns="http://www.w3.org/2000/svg">
<path d="M112.251 99.335C78.8327 90.9641 30.4301 78.3804 7.91103 51.3885C-3.08056 38.7747 -3.5633 16.5844 12.4881 7.93536C22.7078 2.02926 35.1502 2.91735 46.5375 2.36732C63.2697 3.41445 96.9291 -6.67915 107.8 8.27483C110.592 14.6251 103.299 21.7909 97.018 18.655C94.8661 17.4335 92.4801 16.7844 90.0203 16.6033C73.0345 16.1681 56.0748 18.6319 39.0829 18.7687C31.3297 19.4966 19.0473 18.306 16.2252 27.5309C16.2567 27.3921 16.2872 27.253 16.3181 27.114C16.3873 26.9281 16.457 26.742 16.5287 26.5567C12.0199 57.769 90.8328 77.3466 114.793 83.3642C125.18 85.0919 122.697 100.878 112.251 99.335Z" fill="white"/>
<path d="M90.4594 127.067C83.9667 120.197 92.7475 113.477 97.1194 108.471C102.229 101.963 109.991 96.4234 111.685 88.1155C102.486 77.6237 85.5976 76.7428 76.141 66.2651C69.1641 56.4088 85.4919 47.433 90.9498 57.5276C121.866 72.0615 144.026 82.7302 113.058 114.896C106.625 120.645 100.097 135.274 90.4594 127.067Z" fill="white"/>
</svg>
